<svg xmlns="http://www.w3.org/2000/svg" width="256" height="256"><path fill-opacity=".039" d="M0 128.004v128.004l128.25-.254 128.25-.254.254-127.75L257.008 0H0v128.004m.485.496c0 70.4.119 99.053.265 63.672.146-35.38.146-92.98 0-128C.604 29.153.485 58.1.485 128.5" fill="#1976D2" fill-rule="evenodd"/><path fill-opacity=".249" d="M116.5 66.353c-5.775 2.695-11.71 8.821-13.595 14.032L101.598 84H56v16h144V84h-45.598l-1.2-3.319c-1.88-5.199-8.108-11.729-13.646-14.307-6.932-3.228-16.166-3.236-23.056-.021M117 79.5V82h22v-5h-22v2.5m6.358 8.009c-.946 2.467.954 3.662 5.26 3.309 3.109-.255 3.882-.716 3.882-2.318 0-1.639-.769-2.056-4.259-2.308-3.204-.232-4.414.095-4.883 1.317M58 104.5c0 1.375.45 2.5 1 2.5.643 0 .975 9.537.93 26.75-.064 24.741-.177 26.402-1.498 22.11-1.878-6.099-9.142-14.131-14.934-16.513-2.992-1.231-4.492-2.453-4.494-3.664-.003-1.274-.528-1.653-1.754-1.267-.962.302-4 .991-6.75 1.529-2.75.538-6.572 1.446-8.493 2.017-1.922.571-3.559 1.038-3.639 1.038-.08 0-.436-1.547-.79-3.437-.741-3.946-3.224-4.732-10.078-3.188-4.743 1.069-5.959 1.985-5.213 3.93.452 1.179 1.471 1.257 5.633.435 2.794-.553 5.08-1.395 5.08-1.873 0-.477.395-.867.878-.867s1.364 1.912 1.958 4.25c1.042 4.103.962 4.371-2.329 7.75-1.875 1.925-4.161 5.3-5.08 7.5-2.089 5.003-2.162 14.825-.146 19.64 2.066 4.931 8.203 11.539 13.151 14.159 5.737 3.038 17.399 3.038 23.136 0C51.955 183.387 59 173.663 59 167.378V165h39.974l7.161 4.25c12.417 7.369 15.803 15.075 10.266 23.36-4.046 6.054-7.963 9.838-20.901 20.193-14.554 11.648-23.399 19.092-29.872 25.143C60.663 242.587 52 253.497 52 255.11c0 .49 1.688.887 3.75.883 3.17-.006 4.123-.555 6.162-3.549 3.532-5.186 16.157-16.756 32.882-30.135 18.125-14.498 25.716-22.061 28.806-28.697 4.015-8.622 2.86-15.23-3.908-22.362l-3.084-3.25h4.762c2.619 0 5.68.492 6.803 1.093 1.477.79 2.344.79 3.134 0 .649-.649 5.284-1.093 11.418-1.093 9.878 0 10.637.157 17.55 3.632 10.759 5.408 15.383 8.928 18.326 13.951 4.404 7.514 2.23 14.717-8.921 29.564-12.834 17.088-19.68 30.319-19.68 38.035 0 2.54.336 2.818 3.412 2.818 3.186 0 3.456-.258 4.07-3.894 1.039-6.147 5.572-14.608 15.059-28.106C184.9 206.416 188 200.249 188 193.243c0-9.977-5.415-17.509-17.482-24.32-3.035-1.713-5.518-3.296-5.518-3.518 0-.223 7.147-.405 15.881-.405h15.882l1.111 4.412c2.5 9.929 12.458 18.358 22.783 19.286 11.26 1.011 20.097-3.691 25.741-13.698 2.653-4.705 3.101-6.512 3.095-12.5-.005-5.838-.486-7.868-2.897-12.228-1.589-2.875-3.679-5.942-4.644-6.816-1.466-1.326-1.589-2.194-.749-5.272 1.23-4.505 1.421-4.725 3.023-3.473 1.652 1.292 9.513 3.216 10.226 2.504.301-.302.548-1.323.548-2.27 0-1.76-3.281-2.799-11.146-3.531-3.463-.323-3.678-.165-4.302 3.159-.64 3.411-.748 3.482-4.354 2.832-2.034-.366-4.148-.996-4.698-1.399-.55-.403-2.873-1.018-5.163-1.367-2.289-.349-4.876-.909-5.75-1.244-1.056-.405-1.587-.054-1.587 1.049 0 .974-1.547 2.296-3.75 3.205-8.163 3.368-13.402 9.057-16.382 17.789-1.723 5.047-1.728 4.985-1.798-21.688-.045-17.213.287-26.75.93-26.75.55 0 1-1.125 1-2.5V102H58v2.5m88 29V151h36v-35h-36v17.5m-72 1V151h36v-33H74v16.5m84.971-5.971c-9.88 9.913-10.328 10.543-8.686 12.185 1.643 1.642 2.248 1.218 11.723-8.222 5.496-5.475 9.992-10.47 9.992-11.101 0-.63-.588-1.634-1.306-2.23-1.005-.834-3.706 1.324-11.723 9.368M76 128v8h28v-16H76v8m74.472-4.969c-1.714 1.894-1.726 2.144-.176 3.694 1.55 1.55 1.832 1.503 4.171-.694 1.918-1.802 2.247-2.671 1.398-3.694-1.563-1.882-3.259-1.664-5.393.694m20.507 6.491c-2.227 2.371-2.266 2.619-.666 4.219 1.6 1.601 1.849 1.552 4.231-.831 2.459-2.458 2.478-2.58.667-4.219-1.763-1.595-1.995-1.55-4.232.831M82.676 141.82c-3.588 3.675-3.661 3.884-1.891 5.485 1.737 1.572 2.052 1.446 5.686-2.276 3.252-3.33 3.649-4.179 2.566-5.484-1.792-2.159-2.16-2.027-6.361 2.275m13.52-.522c-3.487 3.597-3.818 4.68-1.99 6.508 1.757 1.757 10.237-6.568 8.644-8.487-1.695-2.042-3.187-1.598-6.654 1.979m65.004 2.452.3 5.75 9.25.288 9.25.287V138h-19.1l.3 5.75m-22.251 27.846c-1.315 2.457-1.203 2.749 2.081 5.45l3.47 2.855 2.377-2.351 2.378-2.35-3.378-3.071c-4.144-3.768-5.155-3.846-6.928-.533m87.527 5.798c-2.009 1.469-1.462 4.29 1.014 5.241 1.782.683 4.51-1.266 4.51-3.222 0-2.254-3.469-3.522-5.524-2.019m-201.43 1.05c-2.701 3.255 1.769 7.17 4.765 4.174 1.273-1.274 1.404-2.055.565-3.387-1.46-2.318-3.775-2.66-5.33-.787m124.704 6.272c-2.512.381-2.75.791-2.75 4.742 0 3.847.294 4.399 2.655 4.992 1.726.433 2.946.208 3.485-.642 1.036-1.634 1.13-9.862.11-9.658-.412.082-1.988.337-3.5.566m-10.27 18.305-2.894 3.02 2.546 2.545 2.545 2.546 3.293-3.751 3.293-3.75-2.242-1.815c-2.935-2.377-3.147-2.338-6.541 1.205m-12.274 13.267-3.186 3.287 2.145 2.145 2.145 2.145 3.345-2.551c3.804-2.902 4.123-4.3 1.516-6.659-2.381-2.155-2.262-2.188-5.965 1.633m-12.689 12.695c-2.786 2.907-2.812 3.034-1.033 5 2.465 2.723 3.63 2.551 7.074-1.044l2.933-3.06-2.496-1.917c-3.212-2.468-3.122-2.482-6.478 1.021m-11.267 13.515c-2.749 4.244-2.792 5.141-.316 6.467 2.997 1.604 3.713 1.299 5.98-2.544l2.112-3.579-2.263-1.888c-1.245-1.038-2.488-1.897-2.763-1.908-.275-.012-1.513 1.542-2.75 3.452" fill="#1976D2" fill-rule="evenodd"/><path fill-opacity=".397" d="M119.316 65.326c-6.248 2.303-11.807 7.169-14.855 13.002l-2.961 5.667-22.75.003L56 84v16h144V84H154.243l-1.26-3.041c-4.139-9.992-14.507-17.024-24.893-16.883-3.074.042-7.023.604-8.774 1.25m-.887 5.567c-5.118 2.324-10.181 8.328-11.687 13.857L105.585 89H61v6h134v-6h-44.585l-1.157-4.25c-3.423-12.57-18.622-19.401-30.829-13.857m-60.123 32.752c-.374.974.047 2.14 1.032 2.86C60.814 107.584 61 110.64 61 133.801c0 14.905-.397 26.326-.925 26.653-.509.314-1.657-1.943-2.55-5.018-1.151-3.958-2.851-6.814-5.825-9.788-3.782-3.781-10.162-7.52-11.148-6.533-.211.212.387 3.76 1.33 7.885l1.714 7.5 3.484-.303 3.484-.304 2.208 9.73c1.215 5.351 2.066 9.873 1.891 10.047-.175.175-4.591 1.28-9.813 2.455l-9.496 2.138-2.632-2.632C31.275 174.184 29.22 173 28.157 173c-1.927 0-3.605-5.74-10.297-35.211-1.282-5.646-1.337-5.711-4.828-5.648-6.182.112-11.021 1.725-10.358 3.452.462 1.203 1.487 1.39 4.708.86 2.265-.374 4.661-1.117 5.324-1.652 1.814-1.463 2.958-.258 3.619 3.813.513 3.163.13 4.205-2.811 7.641-11.142 13.017-7.387 32.646 7.681 40.155 14.993 7.471 32.845-.77 36.946-17.057L59.237 165H99.98l6.76 4.368c19.685 12.718 17.41 20.754-12.74 45.001-26.059 20.958-36.544 31.055-40.895 39.381-1.108 2.121-.982 2.25 2.204 2.25 2.928 0 4.02-.8 8.194-6.004 5.076-6.328 15.135-15.257 34.986-31.054 19.067-15.172 27.58-25.816 27.489-34.37-.038-3.628-3.863-10.697-7.678-14.191L114.609 167h5.149c2.831 0 6.306.528 7.722 1.173 1.969.897 2.85.897 3.747 0 .733-.733 4.74-1.173 10.677-1.173 9.205 0 9.788.139 18.55 4.417 19.068 9.311 24.07 17.597 18.159 30.083-1.301 2.75-6.251 10.4-10.999 17-9.996 13.895-16.367 25.984-17.259 32.75l-.627 4.75h3.636c3.294 0 3.638-.259 3.66-2.75.051-5.965 8.253-20.433 22.534-39.75 7.175-9.705 9.899-20.397 7.078-27.783-2.003-5.244-9.108-12.382-17.077-17.157l-5.941-3.56h17.191c17.155 0 17.191.005 17.213 2.25.062 6.351 7.926 16.169 15.478 19.323 4.976 2.078 14.818 2.166 19.573.174 13.396-5.612 19.737-22.095 13.559-35.247-1.292-2.75-3.312-5.857-4.49-6.905-2.445-2.175-2.518-2.7-1.089-7.846 1.022-3.681 1.092-3.725 3.744-2.371 4.679 2.391 8.874 2.921 9.533 1.206.781-2.037-.082-2.441-7.327-3.432-4.291-.587-6.297-.51-6.556.251-.205.603-2.436 8.972-4.957 18.597-2.522 9.625-4.809 18.256-5.083 19.181-.274.924-1.827 1.972-3.451 2.329-1.624.356-3.614 1.591-4.421 2.744l-1.468 2.096-9.784-2.388c-5.38-1.313-9.918-2.464-10.082-2.557-.165-.093.923-4.729 2.418-10.302 2.887-10.768 2.577-10.442 7.996-8.411.662.249 1.795-2.34 2.793-6.387.924-3.743 1.91-7.578 2.193-8.523.941-3.149-5.534.108-11.196 5.632-3.737 3.645-5.557 6.361-6.424 9.586a544.187 544.187 0 0 1-1.588 5.813c-.208.723-.832 1.034-1.386.691-.634-.392-1.007-10.272-1.007-26.703 0-23.161.186-26.217 1.662-27.296.985-.72 1.406-1.886 1.032-2.86C197.117 102.14 191.166 102 128 102c-63.166 0-69.117.14-69.694 1.645M124 120v4h8v-8h-8v4m22 14.023v18.023l17.75-.273 17.75-.273.273-17.75.273-17.75H146v18.023m-71.774.727.274 16.75 17.75.273 17.75.273V118H73.952l.274 16.75m84.445-5.922c-8.711 8.745-9.612 9.976-8.171 11.172 1.42 1.179 2.837.131 11.522-8.521 7.62-7.592 9.652-10.167 8.818-11.172-.597-.719-1.376-1.307-1.731-1.307-.356 0-5.052 4.423-10.438 9.828m-82.463-1.078.292 7.75 13.25.279 13.25.279V120H75.916l.292 7.75m74.952-4.421c-2.01 2.14-2.072 2.499-.639 3.689 1.343 1.114 1.922.984 3.752-.846 1.939-1.939 2.005-2.323.639-3.689-1.366-1.366-1.756-1.278-3.752.846M81 128v3h18v-6H81v3m90.472 2.031c-1.634 1.806-1.672 2.198-.338 3.531 1.333 1.334 1.7 1.279 3.304-.494 1.732-1.913 1.575-5.068-.252-5.068-.482 0-1.703.914-2.714 2.031m55.198 5.763c-1.507 2.703-1.517 6.051-.02 6.625 2.041.784 2.191.626 2.936-3.098.445-2.227.191-3.193-.958-3.633-.86-.331-1.741-.283-1.958.106m-199.185 1.23c-.348.564-.35 2.315-.003 3.892.487 2.218 1.068 2.753 2.564 2.362 1.521-.398 1.8-1.07 1.306-3.142-1.025-4.297-2.434-5.431-3.867-3.112M124 148v12h8v-24h-8v12m-40.936-6.566c-2.081 2.147-3.103 4.021-2.728 5 .859 2.237 1.687 1.955 5.977-2.032 3.082-2.865 3.586-3.819 2.628-4.973-1.671-2.014-2.135-1.856-5.877 2.005m13.593.405c-3.362 3.443-3.583 3.977-2.142 5.173 1.385 1.15 2.099.841 5.188-2.248 2.309-2.31 3.364-4.146 2.97-5.173-.904-2.355-1.875-1.992-6.016 2.248M162 143.5v5.5h18v-11h-18v5.5m4.5.5c.34.55 2.391 1 4.559 1s3.941-.45 3.941-1-2.052-1-4.559-1c-2.785 0-4.319.389-3.941 1m47.456 19.75c-.024.963-.642 3.425-1.373 5.473-1.442 4.039-1.771 3.647 4.504 5.372 1.219.335 1.878-.863 2.839-5.157.689-3.076 1.017-5.828.73-6.116-1.202-1.201-2.469.946-3.12 5.286-.501 3.34-.999 4.329-1.783 3.545-.785-.785-.763-2.177.079-4.987 1.486-4.958 1.472-5.166-.332-5.166-.825 0-1.52.787-1.544 1.75m-174.171-.202c-.301.302-.089 2.355.471 4.563.697 2.744.693 4.34-.012 5.045-.708.708-1.25-.566-1.731-4.063-.494-3.588-1.151-5.093-2.223-5.093-1.096 0-1.35.632-.906 2.25.339 1.238.901 3.949 1.248 6.026.515 3.074.979 3.677 2.5 3.25 6.095-1.715 5.728-1.261 4.285-5.303-.731-2.048-1.349-4.51-1.373-5.473-.043-1.707-1.159-2.301-2.259-1.202m99.626 7.948c-.925 1.412-1.508 2.665-1.296 2.785.212.121 1.58 1.27 3.04 2.554 2.561 2.252 2.748 2.274 5.268.624 2.915-1.91 2.514-2.944-2.538-6.541l-2.793-1.988-1.681 2.566m86.629 5.956c-2.082 2.509-.845 5.048 2.46 5.048 2.066 0 3.078-.548 3.319-1.798.397-2.062-1.467-4.702-3.319-4.702-.69 0-1.797.653-2.46 1.452m-201.656.99c-1.069 2.785.093 5.053 2.747 5.362 2.886.336 4.322-1.8 3.324-4.945-.708-2.232-5.255-2.545-6.071-.417m123.273 10.284c-.652 4.02-.294 4.707 2.969 5.69 2.313.697 3.334-1.328 3.36-6.666.012-2.364-.389-2.75-2.855-2.75-2.538 0-2.939.431-3.474 3.726m-7.86 14.662c-2.577 3.23-2.62 3.462-.921 5 2.536 2.295 3.694 2.024 6.162-1.442 2.083-2.925 2.1-3.136.413-5-2.317-2.56-2.497-2.514-5.654 1.442M127.5 216.44l-3 2.431 2.232 2.269 2.232 2.269 3.01-2.884c2.824-2.706 2.908-2.997 1.363-4.705-2.092-2.311-2.237-2.296-5.837.62m-12.729 12.996c-2.666 3.214-2.686 3.331-.835 5.006 1.762 1.595 2.07 1.6 4.395.076 3.377-2.212 4.056-4.433 2.038-6.663-2.161-2.387-2.353-2.333-5.598 1.581m-11.804 14.117c-1.207 1.954-2.031 3.693-1.831 3.864.56.48 4.689 2.583 5.071 2.583.186 0 1.18-1.563 2.209-3.474 1.531-2.843 1.641-3.752.605-5-1.981-2.388-3.676-1.821-6.054 2.027" fill="#1976D2" fill-rule="evenodd"/><path fill-opacity=".739" d="M120.939 65.317c-7.53 2.11-13.033 6.828-17.126 14.683l-2.344 4.5h-44.47L57 92v7.5h142l.001-7.5.001-7.5-20.751.293c-11.413.161-21.728.049-22.921-.249-1.382-.345-2.405-1.609-2.815-3.476-.896-4.078-7.701-11.499-12.776-13.933-5.579-2.674-13.137-3.406-18.8-1.818m.825 3.62C114.175 71.384 106 80.065 106 85.677v2.285l-22.75.269-22.75.269v7h135v-7l-22.629-.268-22.628-.269-.643-3.215c-1.691-8.453-10.337-15.564-19.803-16.288-2.913-.222-6.528-.008-8.033.477M59 104.014c0 1.092.45 1.986 1 1.986.642 0 1 9.833 1 27.5s-.358 27.5-1 27.5c-.55 0-1 .9-1 2 0 1.935.667 2 20.446 2h20.447l6.05 3.546c11.928 6.991 15.781 13.393 12.617 20.965-2.738 6.554-7.908 11.783-26.289 26.591-19.052 15.349-34.554 30.078-38.046 36.148L52.067 256h3.352c2.526 0 3.781-.656 5.096-2.664 4.574-6.981 14.133-15.699 39.629-36.148 19.474-15.618 24.79-22.621 24.834-32.715.024-5.434-1.084-7.659-6.83-13.723l-3.554-3.75h5.769c3.173 0 6.73.515 7.905 1.143 1.603.858 2.232.858 2.518 0 .254-.762 3.915-1.143 10.974-1.143 10.366 0 10.777.089 19.101 4.118 14.557 7.046 22.429 16.466 20.552 24.595-.897 3.888-5.913 12.761-10.903 19.287-11.693 15.293-18.52 27.915-19.88 36.75-.646 4.199-.618 4.25 2.339 4.25 2.456 0 3.099-.494 3.581-2.75 1.891-8.839 4.331-13.161 22.413-39.707 6.768-9.935 9.608-17.686 8.549-23.331-1.616-8.612-8-15.93-19.197-22.004l-5.815-3.155 17.25-.026c16.574-.026 17.25-.105 17.25-2.027 0-1.1-.45-2-1-2-.642 0-1-9.833-1-27.5s.358-27.5 1-27.5c.55 0 1-.894 1-1.986 0-1.962-.829-1.986-69-1.986s-69 .024-69 1.986m6 29.478V161h53.947l.276-14.75.277-14.75h17l.277 14.75.276 14.75h53.979l-.266-27.25-.266-27.25-62.75-.258-62.75-.257v27.507M119 120v9h18v-18h-18v9m23 13.5V156h44v-45h-44v22.5m-72 1.25V156h44v-42.5H70v21.25m53.714-19.13c-.393.392-.714 2.663-.714 5.047V125h10.11l-.305-4.75-.305-4.75-4.036-.297c-2.22-.163-4.358.024-4.75.417M146 133.5V152h36v-37h-36v18.5m-72 1V152h36v-35H74v17.5m85.478-5.478c-7.875 7.904-9.655 10.201-8.672 11.184.984.984 3.3-.825 11.282-8.807 8.125-8.124 9.782-10.262 8.672-11.183-1.094-.908-3.39.884-11.282 8.806M77 127.5v7.5h26v-15H77v7.5m74.475-4.473c-1.411 1.56-1.557 2.291-.64 3.208.916.916 1.653.721 3.231-.856 1.725-1.725 1.825-2.225.64-3.208-1.1-.913-1.797-.728-3.231.856M81 128v4h18v-8H81v4m90.475 2.027c-1.411 1.56-1.557 2.291-.64 3.208.916.916 1.653.721 3.231-.856 1.725-1.725 1.825-2.225.64-3.208-1.1-.913-1.797-.728-3.231.856M6.75 133.203c-4.449 1.181-5.379 4.191-1 3.235 5.532-1.208 8.461-2.688 7.067-3.572-1.503-.953-1.133-.974-6.067.337m8.86 1.297c.823 3.677 1.395 4.475 1.375 1.917-.009-1.054-.472-2.592-1.031-3.417-.741-1.095-.834-.691-.344 1.5m224.861-.408c-.36 1.132-.388 2.325-.062 2.65.325.325.591-.132.591-1.016 0-2.099 1.766-3.149 3.294-1.959.663.517 3.118 1.408 5.456 1.98 3.421.837 4.25.776 4.25-.315 0-1.369-5.243-3.056-10.188-3.279-1.898-.085-2.88.484-3.341 1.939m-117.134 2.469c-.223.584-.278 6.209-.122 12.5l.285 11.439h9v-24.772l-4.378-.114c-2.408-.063-4.561.364-4.785.947m103.27 1.021c-.985 2.566-.697 4.615.588 4.186 1.779-.593 2.968-5.768 1.326-5.768-.719 0-1.58.712-1.914 1.582M27.787 140c.246 1.679 1.05 3 1.826 3 1.54 0 1.635-.473.757-3.75-.924-3.446-3.106-2.813-2.583.75m55.845 1.865c-3.045 3.118-3.475 4.021-2.356 4.949 1.073.891 2.169.315 5.092-2.679 3.045-3.118 3.475-4.021 2.356-4.949-1.073-.891-2.169-.315-5.092 2.679m13.03-.031c-3.366 3.447-3.588 3.983-2.147 5.178 1.386 1.151 2.108.831 5.269-2.33 3.273-3.272 3.502-3.825 2.148-5.178-1.353-1.354-1.915-1.105-5.27 2.33M162 143.5v5.5h17v-11h-17v5.5m77.079-3.917c.048 1.165.285 1.402.604.605.289-.722.253-1.585-.079-1.917-.332-.332-.568.258-.525 1.312m-221.963.385c-.064.807 1.539 8.783 3.562 17.724 3.458 15.284 3.578 16.368 2 18.111-2.217 2.45-2.137 7.471.151 9.542 2.687 2.432 7.416 2.088 10.065-.732 1.613-1.717 4.583-2.878 10.589-4.138 9.367-1.966 11.504-2.898 10.009-4.365-.644-.632-4.112-.253-9.895 1.082l-8.903 2.054-1.621-2.149c-.891-1.182-2.958-2.507-4.592-2.944-2.916-.78-3.038-1.084-6.676-16.724-4.457-19.161-4.533-19.441-4.689-17.461M166 143.5c0 1.111 1.167 1.5 4.5 1.5s4.5-.389 4.5-1.5-1.167-1.5-4.5-1.5-4.5.389-4.5 1.5m68.501 14.061C230.826 171.91 230.383 173 228.226 173c-1.277 0-3.417 1.182-4.756 2.627l-2.435 2.627-8.481-2.127c-10.015-2.512-10.554-2.549-10.554-.739 0 .923 3.103 2.14 9.25 3.631 5.772 1.399 10.19 3.091 11.75 4.499 3.808 3.438 6.302 3.819 9.343 1.427 3.102-2.44 3.594-7.252 1.031-10.084-1.508-1.667-1.355-2.881 2.128-16.868 2.064-8.289 3.573-15.252 3.352-15.472-.22-.22-2.179 6.548-4.353 15.04m-15.954 10.041c-.931 4.962-.177 5.21 1.116.366.582-2.182.722-3.968.309-3.968-.412 0-1.054 1.621-1.425 3.602M36.17 166c.016.825.39 2.625.83 4 .644 2.01.806 2.108.83.5.016-1.1-.357-2.9-.83-4-.527-1.225-.848-1.419-.83-.5m4.845 1.583c.009 1.054.472 2.592 1.031 3.417.741 1.095.834.691.344-1.5-.823-3.677-1.395-4.475-1.375-1.917m173.064 0c.048 1.165.285 1.402.604.605.289-.722.253-1.585-.079-1.917-.332-.332-.568.258-.525 1.312m-74.171 4.089c-1.258 2.35-1.146 2.726 1.481 4.986 2.693 2.317 2.939 2.355 4.726.738 2.492-2.255 2.439-2.454-1.481-5.581l-3.365-2.686-1.361 2.543m-115.253 6.157c-2.138 2.362-2.086 3.471.262 5.596 1.48 1.34 2.364 1.495 3.882.682 2.953-1.58 3.401-3.907 1.178-6.13-2.443-2.443-3.225-2.465-5.322-.148m200.3.254c-.889 1.662-.764 2.471.62 4 .954 1.054 2.27 1.917 2.925 1.917.655 0 1.971-.863 2.925-1.917 2.29-2.531.582-6.083-2.925-6.083-1.439 0-2.884.85-3.545 2.083m-75.567 7.682c-.611.404-1.316 2.163-1.565 3.909-.368 2.573-.023 3.369 1.826 4.212 2.685 1.223 3.063.77 3.942-4.731.582-3.637.431-4.153-1.213-4.14-1.033.009-2.378.346-2.99.75m-9.411 17.76c-2.369 2.522-2.37 2.527-.379 4.518 1.991 1.991 1.997 1.99 4.85-.989 2.391-2.495 2.649-3.232 1.582-4.518-1.798-2.167-3.323-1.918-6.053.989m-12.311 13.301c-2.588 2.702-2.628 2.898-.912 4.452 1.67 1.511 2.026 1.445 5.073-.94 3.124-2.445 3.198-2.653 1.57-4.451-2.221-2.456-2.526-2.406-5.731.939M115.5 229l-2.909 3.036 2 2 2 2L119.5 233l2.909-3.036-2-2-2-2L115.5 229m-12.295 14.849-2.163 3.849 2.426 1.105c2.197 1.001 2.63.775 4.594-2.404 2.106-3.407 2.115-3.55.304-4.922-2.619-1.984-2.745-1.926-5.161 2.372" fill="#1976D2" fill-rule="evenodd"/></svg>