<svg xmlns="http://www.w3.org/2000/svg" width="500.6" height="219.994" viewBox="0 100 350 100.532" class="css-1j8o68f">
  <path d="m0 117 24.043 32.975L48.088 117v50.226h-9.88v-20.34L24.047 166.43 9.883 146.885v20.341H.001V117zm52.981.917h29.58v9.852h-19.7v9.879h14.774v9.85H62.862v9.85H82.56v9.878H52.979V117.92zm46.311.123v-.032c6.76 0 13.153 2.417 17.986 7.252 8.81 8.808 8.81 25.968 0 34.748-4.833 4.803-11.226 7.22-17.986 7.22H87.12v-49.187h12.173zm.032 39.305h.03c4.037 0 7.768-1.13 10.645-4.006s4.006-6.668 4.006-10.737c0-4.038-1.13-7.831-4.038-10.736-2.875-2.907-6.667-4.038-10.706-4.038h-2.263v29.52h2.326zm61.238.154-.031-.061c2.723 0 4.986-2.263 4.986-4.987 0-2.11-.825-3.456-2.507-4.067-3.549-1.316-2.694-1.01-6.149-2.204-3.64-1.253-7.005-3.73-9.268-6.82-1.347-1.836-2.02-4.099-2.02-6.822 0-4.1 1.468-7.617 4.405-10.553s6.454-4.404 10.584-4.404c4.099 0 7.616 1.467 10.553 4.404s4.405 6.454 4.405 10.553h-9.942c0-2.691-2.263-4.956-4.955-4.956-2.722 0-4.987 2.265-4.987 4.987 0 1.774.705 3.12 2.143 4.037 2.937 1.895 2.6 1.53 6.117 2.569a19.008 19.008 0 0 1 9.574 6.485c1.377 1.775 2.08 4.07 2.08 6.852 0 4.13-1.467 7.648-4.404 10.584s-6.454 4.406-10.554 4.406c-4.129 0-7.646-1.469-10.583-4.406s-4.405-6.454-4.405-10.584h9.971a4.987 4.987 0 0 0 4.987 4.987zm31.23-39.582h22.209v9.852h-12.326v39.457h-9.882v-39.459h-12.326v-9.85h12.326zm50.168-.245c6.852 0 12.725 2.447 17.62 7.342s7.342 10.767 7.342 17.619-2.448 12.725-7.343 17.588-10.767 7.31-17.619 7.31-12.725-2.447-17.588-7.312-7.31-10.736-7.31-17.588 2.447-12.725 7.31-17.619 10.738-7.34 17.588-7.34zm0 9.942c-4.13 0-7.647 1.469-10.553 4.405s-4.374 6.453-4.374 10.553c0 4.13 1.468 7.647 4.374 10.553s6.423 4.374 10.553 4.374c4.099 0 7.616-1.468 10.553-4.374s4.405-6.425 4.405-10.553c0-4.099-1.469-7.616-4.405-10.553s-6.453-4.405-10.553-4.405zm52.247-9.942-.031.122c3.425 0 6.637.642 9.666 1.957s5.69 3.09 7.983 5.324l-7.035 7.035c-2.967-2.937-6.484-4.406-10.553-4.406-4.13 0-7.648 1.47-10.553 4.406s-4.374 6.453-4.374 10.553c0 4.13 1.467 7.647 4.374 10.553s6.423 4.374 10.553 4.374 7.648-1.468 10.584-4.404l7.035 7.035c-2.294 2.263-4.955 4.038-7.984 5.353s-6.24 1.958-9.666 1.958c-6.852 0-12.725-2.447-17.588-7.311s-7.311-10.736-7.311-17.588 2.448-12.725 7.31-17.62 10.738-7.34 17.589-7.34zm21.289.245h9.88v18.72l10.86-18.72h11.409l-14.561 25.053 16.918 24.256h-12.02l-12.604-18.11v18.11h-9.88v-49.309z" fill="#08d9d6"/>
</svg>
