<svg xmlns="http://www.w3.org/2000/svg" width="259.6" height="219.99361704948063" viewBox="50 0 250 100.53212786622763" class="css-1j8o68f">
  <defs id="SvgjsDefs4159"/>
  <g id="SvgjsG4160" featurekey="symbolFeature-0" transform="matrix(1.227847874136343,0,0,1.227847874136343,117.28772350293625,-9.71227883899772)" fill="#7f6fea">
    <path xmlns="http://www.w3.org/2000/svg" d="M65.04,77.156V65.038h12.119c5.475,0,9.932-4.541,9.932-10.122V40.085c0-5.581-4.457-10.123-9.932-10.123H44.526v29.126  H17.844c-2.197,0-3.982-1.872-3.982-4.172V40.085c0-2.3,1.785-4.172,3.982-4.172h18.068V17.844c0-2.196,1.873-3.982,4.172-3.982  h14.832c2.301,0,4.172,1.786,4.172,3.982v6.168h5.951v-6.168c0-5.477-4.543-9.934-10.123-9.934H40.084  c-5.58,0-10.121,4.457-10.121,9.934v12.118H17.844c-5.477,0-9.934,4.542-9.934,10.123v14.831c0,5.581,4.457,10.122,9.934,10.122  h32.631V35.913h26.684c2.195,0,3.98,1.872,3.98,4.172v14.831c0,2.3-1.785,4.172-3.98,4.172h-18.07v18.068  c0,2.197-1.871,3.982-4.172,3.982H40.084c-2.299,0-4.172-1.785-4.172-3.982v-6.167h-5.949v6.167c0,5.478,4.541,9.934,10.121,9.934  h14.832C60.497,87.09,65.04,82.634,65.04,77.156z"/>
  </g>
</svg>
