<svg xmlns="http://www.w3.org/2000/svg" width="459.6" height="219.99361704948063" viewBox="0 0 350 167.53212786622763" class="css-1j8o68f"><defs id="SvgjsDefs4159"></defs><g id="SvgjsG4160" featurekey="symbolFeature-0" transform="matrix(1.227847874136343,0,0,1.227847874136343,117.28772350293625,-9.71227883899772)" fill="#7f6fea"><path xmlns="http://www.w3.org/2000/svg" d="M65.04,77.156V65.038h12.119c5.475,0,9.932-4.541,9.932-10.122V40.085c0-5.581-4.457-10.123-9.932-10.123H44.526v29.126  H17.844c-2.197,0-3.982-1.872-3.982-4.172V40.085c0-2.3,1.785-4.172,3.982-4.172h18.068V17.844c0-2.196,1.873-3.982,4.172-3.982  h14.832c2.301,0,4.172,1.786,4.172,3.982v6.168h5.951v-6.168c0-5.477-4.543-9.934-10.123-9.934H40.084  c-5.58,0-10.121,4.457-10.121,9.934v12.118H17.844c-5.477,0-9.934,4.542-9.934,10.123v14.831c0,5.581,4.457,10.122,9.934,10.122  h32.631V35.913h26.684c2.195,0,3.98,1.872,3.98,4.172v14.831c0,2.3-1.785,4.172-3.98,4.172h-18.07v18.068  c0,2.197-1.871,3.982-4.172,3.982H40.084c-2.299,0-4.172-1.785-4.172-3.982v-6.167h-5.949v6.167c0,5.478,4.541,9.934,10.121,9.934  h14.832C60.497,87.09,65.04,82.634,65.04,77.156z"></path></g><g id="SvgjsG4161" featurekey="nameFeature-0" transform="matrix(1.5661581582401751,0,0,1.5661581582401751,-2.4471221222502737,104.58036532720187)" fill="#08d9d6"><path d="M1.5625 7.93 l15.352 21.055 l15.352 -21.055 l0 32.07 l-6.3086 0 l0 -12.988 l-9.043 12.48 l-9.043 -12.48 l0 12.988 l-6.3086 0 l0 -32.07 z M35.390625 8.515999999999998 l18.887 0 l0 6.2891 l-12.578 0 l0 6.3086 l9.4336 0 l0 6.2891 l-9.4336 0 l0 6.2891 l12.578 0 l0 6.3086 l-12.578 0 l-6.3086 0 l0 -31.484 z M64.96093125 8.594000000000001 l0 -0.019531 c4.3164 0 8.3984 1.543 11.484 4.6289 c5.625 5.625 5.625 16.582 0 22.188 c-3.0859 3.0664 -7.168 4.6094 -11.484 4.6094 l-7.7734 0 l0 -31.406 l7.7734 0 z M64.98043125 33.6914 l0.019531 0 c2.5781 0 4.9609 -0.72266 6.7969 -2.5586 s2.5586 -4.2578 2.5586 -6.8555 c0 -2.5781 -0.72266 -5 -2.5781 -6.8555 c-1.8359 -1.8555 -4.2578 -2.5781 -6.8359 -2.5781 l-1.4453 0 l0 18.848 l1.4844 0 z M104.0820625 33.7891 l-0.019531 -0.039063 c1.7383 0 3.1836 -1.4453 3.1836 -3.1836 c0 -1.3477 -0.52734 -2.207 -1.6016 -2.5977 c-2.2656 -0.83984 -1.7188 -0.64453 -3.9258 -1.4063 c-2.3242 -0.80078 -4.4727 -2.3828 -5.918 -4.3555 c-0.85938 -1.1719 -1.2891 -2.6172 -1.2891 -4.3555 c0 -2.6172 0.9375 -4.8633 2.8125 -6.7383 s4.1211 -2.8125 6.7578 -2.8125 c2.6172 0 4.8633 0.9375 6.7383 2.8125 s2.8125 4.1211 2.8125 6.7383 l-6.3477 0 c0 -1.7188 -1.4453 -3.1641 -3.1641 -3.1641 c-1.7383 0 -3.1836 1.4453 -3.1836 3.1836 c0 1.1328 0.44922 1.9922 1.3672 2.5781 c1.875 1.2109 1.6602 0.97656 3.9063 1.6406 c2.4219 0.70313 4.6094 2.207 6.1133 4.1406 c0.87891 1.1328 1.3281 2.5977 1.3281 4.375 c0 2.6367 -0.9375 4.8828 -2.8125 6.7578 s-4.1211 2.8125 -6.7383 2.8125 c-2.6367 0 -4.8828 -0.9375 -6.7578 -2.8125 s-2.8125 -4.1211 -2.8125 -6.7578 l6.3672 0 c0 1.7578 1.4258 3.1836 3.1836 3.1836 z M124.02346875 8.515999999999998 l6.3086 0 l7.8711 0 l0 6.2891 l-7.8711 0 l0 25.195 l-6.3086 0 l0 -25.195 l-7.8711 0 l0 -6.2891 l7.8711 0 z M156.055 8.359000000000002 c4.375 0 8.125 1.5625 11.25 4.6875 s4.6875 6.875 4.6875 11.25 s-1.5625 8.125 -4.6875 11.23 s-6.875 4.668 -11.25 4.668 s-8.125 -1.5625 -11.23 -4.668 s-4.668 -6.8555 -4.668 -11.23 s1.5625 -8.125 4.668 -11.25 s6.8555 -4.6875 11.23 -4.6875 z M156.055 14.707 c-2.6367 0 -4.8828 0.9375 -6.7383 2.8125 s-2.793 4.1211 -2.793 6.7383 c0 2.6367 0.9375 4.8828 2.793 6.7383 s4.1016 2.793 6.7383 2.793 c2.6172 0 4.8633 -0.9375 6.7383 -2.793 s2.8125 -4.1016 2.8125 -6.7383 c0 -2.6172 -0.9375 -4.8633 -2.8125 -6.7383 s-4.1211 -2.8125 -6.7383 -2.8125 z M189.414375 8.359000000000002 l-0.019531 0.078125 c2.1875 0 4.2383 0.41016 6.1719 1.25 s3.6328 1.9727 5.0977 3.3984 l-4.4922 4.4922 c-1.8945 -1.875 -4.1406 -2.8125 -6.7383 -2.8125 c-2.6367 0 -4.8828 0.9375 -6.7383 2.8125 s-2.793 4.1211 -2.793 6.7383 c0 2.6367 0.9375 4.8828 2.793 6.7383 s4.1016 2.793 6.7383 2.793 s4.8828 -0.9375 6.7578 -2.8125 l4.4922 4.4922 c-1.4648 1.4453 -3.1641 2.5781 -5.0977 3.418 s-3.9844 1.25 -6.1719 1.25 c-4.375 0 -8.125 -1.5625 -11.23 -4.668 s-4.668 -6.8555 -4.668 -11.23 s1.5625 -8.125 4.668 -11.25 s6.8555 -4.6875 11.23 -4.6875 z M203.0078125 8.515999999999998 l6.3086 0 l0 11.953 l6.9336 -11.953 l7.2852 0 l-9.2969 15.996 l10.801 15.488 l-7.6758 0 l-8.0469 -11.563 l0 11.563 l-6.3086 0 l0 -31.484 z"></path></g></svg>